<svg id="visual" viewBox="0 0 900 600" width="900" height="600" xmlns="http://www.w3.org/2000/svg" xmlns:xlink="http://www.w3.org/1999/xlink" version="1.1"><rect x="0" y="0" width="900" height="600" fill="#FFE5E5"></rect><path d="M0 217L21.5 212.3C43 207.7 86 198.3 128.8 197.7C171.7 197 214.3 205 257.2 208.8C300 212.7 343 212.3 385.8 204.8C428.7 197.3 471.3 182.7 514.2 182C557 181.3 600 194.7 642.8 206.5C685.7 218.3 728.3 228.7 771.2 229.3C814 230 857 221 878.5 216.5L900 212L900 0L878.5 0C857 0 814 0 771.2 0C728.3 0 685.7 0 642.8 0C600 0 557 0 514.2 0C471.3 0 428.7 0 385.8 0C343 0 300 0 257.2 0C214.3 0 171.7 0 128.8 0C86 0 43 0 21.5 0L0 0Z" fill="#ffffff"></path><path d="M0 128L21.5 129.3C43 130.7 86 133.3 128.8 145.5C171.7 157.7 214.3 179.3 257.2 182.7C300 186 343 171 385.8 157.7C428.7 144.3 471.3 132.7 514.2 137.3C557 142 600 163 642.8 173.2C685.7 183.3 728.3 182.7 771.2 176.5C814 170.3 857 158.7 878.5 152.8L900 147L900 0L878.5 0C857 0 814 0 771.2 0C728.3 0 685.7 0 642.8 0C600 0 557 0 514.2 0C471.3 0 428.7 0 385.8 0C343 0 300 0 257.2 0C214.3 0 171.7 0 128.8 0C86 0 43 0 21.5 0L0 0Z" fill="#f8d0cc"></path><path d="M0 117L21.5 124C43 131 86 145 128.8 147.7C171.7 150.3 214.3 141.7 257.2 136.5C300 131.3 343 129.7 385.8 132.5C428.7 135.3 471.3 142.7 514.2 141.3C557 140 600 130 642.8 131.8C685.7 133.7 728.3 147.3 771.2 146.2C814 145 857 129 878.5 121L900 113L900 0L878.5 0C857 0 814 0 771.2 0C728.3 0 685.7 0 642.8 0C600 0 557 0 514.2 0C471.3 0 428.7 0 385.8 0C343 0 300 0 257.2 0C214.3 0 171.7 0 128.8 0C86 0 43 0 21.5 0L0 0Z" fill="#eba29b"></path><path d="M0 111L21.5 102C43 93 86 75 128.8 76C171.7 77 214.3 97 257.2 102.7C300 108.3 343 99.7 385.8 97.2C428.7 94.7 471.3 98.3 514.2 95.8C557 93.3 600 84.7 642.8 81.5C685.7 78.3 728.3 80.7 771.2 81.2C814 81.7 857 80.3 878.5 79.7L900 79L900 0L878.5 0C857 0 814 0 771.2 0C728.3 0 685.7 0 642.8 0C600 0 557 0 514.2 0C471.3 0 428.7 0 385.8 0C343 0 300 0 257.2 0C214.3 0 171.7 0 128.8 0C86 0 43 0 21.5 0L0 0Z" fill="#da736d"></path><path d="M0 39L21.5 39.3C43 39.7 86 40.3 128.8 38.2C171.7 36 214.3 31 257.2 30.2C300 29.3 343 32.7 385.8 32.8C428.7 33 471.3 30 514.2 29.3C557 28.7 600 30.3 642.8 29.8C685.7 29.3 728.3 26.7 771.2 29.2C814 31.7 857 39.3 878.5 43.2L900 47L900 0L878.5 0C857 0 814 0 771.2 0C728.3 0 685.7 0 642.8 0C600 0 557 0 514.2 0C471.3 0 428.7 0 385.8 0C343 0 300 0 257.2 0C214.3 0 171.7 0 128.8 0C86 0 43 0 21.5 0L0 0Z" fill="#c44141"></path></svg>