<svg id="visual" viewBox="0 0 900 600" width="900" height="600" xmlns="http://www.w3.org/2000/svg" xmlns:xlink="http://www.w3.org/1999/xlink" version="1.1"><rect x="0" y="0" width="900" height="600" fill="#FFE5E5"></rect><path d="M0 381L21.5 385.7C43 390.3 86 399.7 128.8 400.3C171.7 401 214.3 393 257.2 389.2C300 385.3 343 385.7 385.8 393.2C428.7 400.7 471.3 415.3 514.2 416C557 416.7 600 403.3 642.8 391.5C685.7 379.7 728.3 369.3 771.2 368.7C814 368 857 377 878.5 381.5L900 386L900 601L878.5 601C857 601 814 601 771.2 601C728.3 601 685.7 601 642.8 601C600 601 557 601 514.2 601C471.3 601 428.7 601 385.8 601C343 601 300 601 257.2 601C214.3 601 171.7 601 128.8 601C86 601 43 601 21.5 601L0 601Z" fill="#ffffff"></path><path d="M0 470L21.5 468.7C43 467.3 86 464.7 128.8 452.5C171.7 440.3 214.3 418.7 257.2 415.3C300 412 343 427 385.8 440.3C428.7 453.7 471.3 465.3 514.2 460.7C557 456 600 435 642.8 424.8C685.7 414.7 728.3 415.3 771.2 421.5C814 427.7 857 439.3 878.5 445.2L900 451L900 601L878.5 601C857 601 814 601 771.2 601C728.3 601 685.7 601 642.8 601C600 601 557 601 514.2 601C471.3 601 428.7 601 385.8 601C343 601 300 601 257.2 601C214.3 601 171.7 601 128.8 601C86 601 43 601 21.5 601L0 601Z" fill="#f8d0cc"></path><path d="M0 481L21.5 474C43 467 86 453 128.8 450.3C171.7 447.7 214.3 456.3 257.2 461.5C300 466.7 343 468.3 385.8 465.5C428.7 462.7 471.3 455.3 514.2 456.7C557 458 600 468 642.8 466.2C685.7 464.3 728.3 450.7 771.2 451.8C814 453 857 469 878.5 477L900 485L900 601L878.5 601C857 601 814 601 771.2 601C728.3 601 685.7 601 642.8 601C600 601 557 601 514.2 601C471.3 601 428.7 601 385.8 601C343 601 300 601 257.2 601C214.3 601 171.7 601 128.8 601C86 601 43 601 21.5 601L0 601Z" fill="#eba29b"></path><path d="M0 487L21.5 496C43 505 86 523 128.8 522C171.7 521 214.3 501 257.2 495.3C300 489.7 343 498.3 385.8 500.8C428.7 503.3 471.3 499.7 514.2 502.2C557 504.7 600 513.3 642.8 516.5C685.7 519.7 728.3 517.3 771.2 516.8C814 516.3 857 517.7 878.5 518.3L900 519L900 601L878.5 601C857 601 814 601 771.2 601C728.3 601 685.7 601 642.8 601C600 601 557 601 514.2 601C471.3 601 428.7 601 385.8 601C343 601 300 601 257.2 601C214.3 601 171.7 601 128.8 601C86 601 43 601 21.5 601L0 601Z" fill="#da736d"></path><path d="M0 559L21.5 558.7C43 558.3 86 557.7 128.8 559.8C171.7 562 214.3 567 257.2 567.8C300 568.7 343 565.3 385.8 565.2C428.7 565 471.3 568 514.2 568.7C557 569.3 600 567.7 642.8 568.2C685.7 568.7 728.3 571.3 771.2 568.8C814 566.3 857 558.7 878.5 554.8L900 551L900 601L878.5 601C857 601 814 601 771.2 601C728.3 601 685.7 601 642.8 601C600 601 557 601 514.2 601C471.3 601 428.7 601 385.8 601C343 601 300 601 257.2 601C214.3 601 171.7 601 128.8 601C86 601 43 601 21.5 601L0 601Z" fill="#c44141"></path></svg>